<?xml version="1.0" encoding="utf-8"?>
<!-- Generator: Adobe Illustrator 13.0.0, SVG Export Plug-In  -->
<!DOCTYPE svg PUBLIC "-//W3C//DTD SVG 1.1//EN" "http://www.w3.org/Graphics/SVG/1.1/DTD/svg11.dtd" [
	<!ENTITY ns_flows "http://ns.adobe.com/Flows/1.0/">
]>
<svg version="1.1"
	 xmlns="http://www.w3.org/2000/svg" xmlns:xlink="http://www.w3.org/1999/xlink" xmlns:a="http://ns.adobe.com/AdobeSVGViewerExtensions/3.0/"
	 x="0px" y="0px" width="347px" height="132px" viewBox="76.495 183.479 347 132" enable-background="new 76.495 183.479 347 132"
	 xml:space="preserve">
<defs>
</defs>
<rect display="none" fill="#FFFFFF" width="500" height="500"/>
<path fill="currentColor" d="M78.844,186.559c2.711,0,11.522,0.407,18.707,0.407c7.32,0,15.725-0.407,19.385-0.407
	c0.542,0.813,0.678,4.338,0,5.286c-3.66,0.407-6.101,0.678-7.998,1.22c-3.253,0.814-3.796,2.44-4.067,6.507
	c-0.406,5.829-0.271,15.588-0.271,27.518c0,12.606,0.136,25.349,0.406,30.092c0.136,4.203,0.814,6.101,5.152,7.186
	c2.033,0.407,5.151,0.948,9.082,1.49c0.678,0.542,0.271,4.881-0.406,5.423c-2.982,0-12.743-0.407-19.927-0.407
	c-7.998,0-18.029,0.407-20.469,0.407c-0.813-0.407-0.813-4.881-0.135-5.423c3.66-0.405,5.558-0.678,7.591-1.083
	c4.338-1.084,4.88-2.982,5.287-5.694c0.542-3.931,0.406-11.928,0.406-34.16c0-11.386,0.136-19.113-0.271-25.483
	c-0.271-3.661-0.678-5.152-3.525-5.966c-2.44-0.677-5.015-1.083-9.082-1.626C78.031,191.167,78.302,187.236,78.844,186.559z"/>
<path fill="currentColor" d="M191.761,193.608c-4.203-1.898-10.302-2.711-16.538-2.711c-19.249,0-29.416,14.369-29.416,36.464
	c0,18.436,10.438,38.497,35.245,38.497c7.455,0,12.064-2.44,14.098-3.795c3.118-2.304,7.048-7.727,10.98-14.098
	c1.084-0.136,4.067,1.627,4.473,2.847c-1.084,5.15-7.32,16.403-10.573,18.707c-3.795,1.491-13.42,3.795-21.688,3.795
	c-31.043,0-47.852-16.944-47.852-44.733c0-14.775,6.913-29.687,21.825-37.82c7.32-3.932,16.131-6.236,27.382-6.236
	c12.877,0,22.095,2.44,28.331,2.846c-0.813,5.422-1.897,15.589-2.033,21.96c-0.678,0.813-5.422,1.356-5.558,0.407
	C198.945,198.758,197.319,196.318,191.761,193.608z"/>
<path fill="currentColor" d="M221.176,186.559c3.118,0,11.115,0.407,18.165,0.407h33.753c4.608,0,11.115,0,14.099-0.407
	c0.406,0,0.813,0.813,0.813,1.084c-0.813,3.253-1.762,12.2-1.897,19.791c-0.678,0.949-5.287,1.355-6.1,0.542
	c-0.815-4.066-1.087-5.829-1.899-8.811c-1.355-3.389-2.439-4.745-6.371-4.88c-5.287-0.271-19.248-0.542-23.586-0.135
	c-0.813,0.135-1.626,1.762-1.626,2.44c0,9.76-0.271,19.113-0.136,28.874c0,0.406,0.406,0.813,0.542,0.813
	c8.674,0,18.029,0,22.773-0.407c2.439-0.135,3.253-1.897,4.203-4.744c0.542-1.491,1.084-3.253,1.491-5.829
	c1.354-0.407,5.286-0.271,6.642,0.542c-0.406,3.524-0.948,9.76-0.948,14.234c0,5.15,0.135,9.896,0.405,14.775
	c-1.083,0.677-4.608,0.813-6.235,0.136c-0.677-2.982-1.083-4.338-1.627-6.1c-0.949-3.253-2.169-4.609-5.014-4.745
	c-4.881-0.271-17.895-0.271-21.69-0.271c-0.406,0-0.542,0.407-0.542,0.678c0,8.404-0.135,17.894,0.136,23.452
	c0.135,4.065,0.948,5.557,5.015,6.37c3.523,0.678,6.643,1.085,10.571,1.49c0.68,0.678,0.545,4.745-0.405,5.423
	c-4.473,0-10.573-0.407-22.773-0.407c-9.76,0-13.827,0.407-18.707,0.407c-0.813-0.542-0.949-4.607-0.135-5.286
	c3.389-0.407,6.235-0.949,7.998-1.356c4.066-1.084,4.745-2.033,5.016-6.777c0.271-5.016,0.135-13.42,0.135-29.958
	c0-15.453,0-24.129-0.271-28.331c-0.135-4.473-0.949-5.558-3.932-6.372c-2.033-0.407-4.744-0.949-7.997-1.356
	C220.092,191.167,220.634,187.236,221.176,186.559z"/>
<path fill="currentColor" d="M301.291,252.709c5.965-14.233,19.113-48.257,22.097-57.069c1.083-3.118,2.303-6.642,2.71-8.811
	c0.677,0.136,2.441,0.136,5.016,0.136c3.254,0,4.745,0,5.423-0.136c0.677,2.711,1.49,5.287,2.438,7.998
	c2.712,7.591,17.758,47.174,23.045,59.238c4.339,9.626,5.422,10.438,15.725,11.793c0.813,0.542,0.271,4.745-0.271,5.423
	c-3.524-0.136-10.031-0.407-17.757-0.407c-8.133,0-16.944,0.407-19.655,0.407c-0.544-0.678-0.68-4.745,0-5.423
	c2.981-0.405,5.829-0.813,7.862-1.49c1.626-0.677,1.896-2.44,1.626-3.389c-1.762-5.693-5.287-14.912-7.455-20.198
	c-0.271-0.678-1.084-0.949-1.355-0.949c-2.44-0.136-8.677-0.136-13.692-0.136c-8.674,0-9.488,0-10.98,0.136
	c-0.677,0-1.626,0.949-1.626,1.22c-2.845,7.727-6.371,16.538-6.371,19.249c0,2.576,0.542,3.525,4.474,4.475
	c1.762,0.405,4.745,0.813,7.185,1.083c0.542,0.678,0.271,4.745-0.406,5.423c-2.712,0-9.762-0.407-18.842-0.407
	c-8.813,0-13.286,0.407-15.861,0.407c-0.541-0.678-0.541-4.745,0-5.423C294.649,264.503,296.547,263.691,301.291,252.709z
	 M327.588,203.096c-2.303,7.185-7.184,19.656-9.758,27.789c0,0.408,0.135,0.814,0.542,0.949c1.49,0.136,6.776,0.136,10.709,0.136
	c3.387,0,7.184,0,8.945-0.136c0.406,0,0.813-0.678,0.677-1.355c-2.574-7.049-7.997-22.096-10.3-27.518
	C328.265,202.961,327.859,202.825,327.588,203.096z"/>
<path fill="currentColor" d="M381.405,186.559c2.71,0,11.521,0.407,18.706,0.407c7.319,0,15.726-0.407,19.384-0.407
	c0.542,0.813,0.678,4.338,0,5.286c-3.658,0.407-6.1,0.678-7.997,1.22c-3.254,0.814-3.796,2.44-4.067,6.507
	c-0.406,5.829-0.271,15.588-0.271,27.518c0,12.606,0.135,25.349,0.406,30.092c0.136,4.203,0.813,6.101,5.151,7.186
	c2.032,0.407,5.151,0.948,9.084,1.49c0.677,0.542,0.271,4.881-0.409,5.423c-2.981,0-12.742-0.407-19.926-0.407
	c-7.997,0-18.029,0.407-20.471,0.407c-0.813-0.407-0.813-4.881-0.135-5.423c3.661-0.405,5.558-0.678,7.592-1.083
	c4.339-1.084,4.881-2.982,5.287-5.694c0.542-3.931,0.406-11.928,0.406-34.16c0-11.386,0.136-19.113-0.271-25.483
	c-0.271-3.661-0.677-5.152-3.525-5.966c-2.439-0.677-5.016-1.083-9.081-1.626C380.59,191.167,380.861,187.236,381.405,186.559z"/>
<rect x="76.479" y="277.668" fill="#E31E24" width="347" height="37.794"/>
<text x="250" y="304" text-anchor="middle" font-family="Arial, Helvetica, sans-serif" font-weight="700" font-size="23" letter-spacing="3.5" fill="#F7F5F2">FOUNDERS NETWORK</text>
</svg>
